<svg  height = "50"  width = "150"  version = "1.1"  xmlns = "http://www.w3.org/2000/svg">
<polyline points="6,15.73 9.83,15.81 13.67,15.08 17.5,14.64 21.33,16.5 25.17,18.99 29,18.39 32.83,32.69 36.67,40.6 40.5,37.68 44.33,35.35 48.17,39.47 52,44 55.83,34.79 59.67,26.87 63.5,25.36 67.33,21.95 71.17,19.67 75,18.87 78.83,18.41 82.67,15.16 86.5,16.49 90.33,13.52 94.17,9.53 98,23.93 101.83,29.58 105.67,12.49 109.5,9.33 113.33,10.85 117.17,9.14 121,9 124.83,7.85 128.67,8.69 132.5,6 136.33,7.61 140.17,7.55 144,8.84" style="fill:none;stroke:#BCD3EF;stroke-width:3" />
<circle cx="144" cy="8.84" r="4" fill="white" stroke = "#BCD3EF" stroke-width="3"/>
</svg>
