<svg height = "50"  width = "150"  version = "1.1"  xmlns = "http://www.w3.org/2000/svg">
<polyline points="6,30.23 9.83,29.94 13.67,30.71 17.5,27.87 21.33,26.64 25.17,23.58 29,27.95 32.83,15.37 36.67,8.75 40.5,6 44.33,11.67 48.17,12.07 52,17.15 55.83,14.92 59.67,14.41 63.5,13.18 67.33,14.6 71.17,20.98 75,16.07 78.83,23.42 82.67,31.24 86.5,33.5 90.33,35.16 94.17,37.91 98,33.21 101.83,25.04 105.67,30.48 109.5,35.57 113.33,35.51 117.17,35.2 121,35.56 124.83,35.15 128.67,39.09 132.5,43.93 136.33,44 140.17,40.29 144,39.26" style="fill:none;stroke:#1D9EC3;stroke-width:3" />
<circle cx="144" cy="39.26" r="4" fill="white" stroke = "#1D9EC3" stroke-width="3"/>
</svg>
