<svg height = "50"  width = "150"  version = "1.1"  xmlns = "http://www.w3.org/2000/svg">
<polyline points="6,18.58 9.83,18.08 13.67,16.78 17.5,15.76 21.33,16.96 25.17,18.79 29,17.52 32.83,31.81 36.67,39.68 40.5,36.67 44.33,34.67 48.17,39.13 52,44 55.83,35.06 59.67,27.44 63.5,26.23 67.33,22.93 71.17,20.77 75,20.09 78.83,19.61 82.67,16.34 86.5,17.65 90.33,14.67 94.17,10.67 98,25.03 101.83,30.39 105.67,12.99 109.5,9.51 113.33,10.2 117.17,7.65 121,6.67 124.83,6.29 128.67,7.91 132.5,6 136.33,7.53 140.17,7.39 144,8.6" style="fill:none;stroke:#745ECF;stroke-width:3" />
<circle cx="144" cy="8.6" r="4" fill="white" stroke = "#745ECF" stroke-width="3"/>
</svg>
