<svg  height = "50"  width = "150"  version = "1.1"  xmlns = "http://www.w3.org/2000/svg">
<polyline points="6,13.57 9.83,14.17 13.67,12.97 17.5,11.49 21.33,14.31 25.17,14.28 29,17.66 32.83,40.81 36.67,38.49 40.5,29.69 44.33,25.57 48.17,38.05 52,44 55.83,33.72 59.67,18.85 63.5,21.93 67.33,29.23 71.17,18.13 75,13.18 78.83,13.89 82.67,8.66 86.5,27.69 90.33,6.36 94.17,14.33 98,23.41 101.83,33.56 105.67,10.44 109.5,7.88 113.33,39.04 117.17,9 121,6 124.83,8.22 128.67,9.42 132.5,8.46 136.33,6.54 140.17,7.03 144,7.8" style="fill:none;stroke:#2A6FA2;stroke-width:3" />
<circle cx="144" cy="7.8" r="4" fill="white" stroke = "#2A6FA2" stroke-width="3"/>
</svg>
