<svg  height = "50"  width = "150"  version = "1.1"  xmlns = "http://www.w3.org/2000/svg">
<polyline points="6,28.08 9.83,27.08 13.67,28.33 17.5,28.11 21.33,25.34 25.17,27.88 29,28.92 32.83,32.91 36.67,36.03 40.5,38.62 44.33,41.29 48.17,42.76 52,44 55.83,37.31 59.67,33.6 63.5,34.65 67.33,29.59 71.17,27.68 75,28.98 78.83,27.99 82.67,24.24 86.5,24.07 90.33,22.38 94.17,17.76 98,21.25 101.83,26.95 105.67,20.69 109.5,17.99 113.33,19.69 117.17,12.97 121,13.83 124.83,9.92 128.67,11.88 132.5,6.67 136.33,7.77 140.17,8.78 144,6" style="fill:none;stroke:#62BB46;stroke-width:3" />
<circle cx="144" cy="6" r="4" fill="white" stroke = "#62BB46" stroke-width="3"/>
</svg>
