<svg  height = "50"  width = "150"  version = "1.1"  xmlns = "http://www.w3.org/2000/svg">
<polyline points="6,14.37 9.83,14.13 13.67,14.5 17.5,12.04 21.33,11.83 25.17,15.71 29,15.81 32.83,31.62 36.67,38.49 40.5,29.89 44.33,29.87 48.17,35.22 52,44 55.83,26.96 59.67,16.34 63.5,18.3 67.33,14 71.17,14.41 75,11.36 78.83,14.01 82.67,13.04 86.5,16.31 90.33,12.27 94.17,9.6 98,25.88 101.83,29.24 105.67,9.71 109.5,7.98 113.33,11.06 117.17,8.41 121,8.78 124.83,6 128.67,10.11 132.5,9.05 136.33,11.95 140.17,8.65 144,11.84" style="fill:none;stroke:#14826D;stroke-width:3" />
<circle cx="144" cy="11.84" r="4" fill="white" stroke = "#14826D" stroke-width="3"/>
</svg>
