<svg  height = "50"  width = "150"  version = "1.1"  xmlns = "http://www.w3.org/2000/svg">
<polyline points="6,32.25 9.83,31.6 13.67,34.61 17.5,32.4 21.33,25.98 25.17,29.44 29,28.02 32.83,26.31 36.67,19.64 40.5,10.73 44.33,14.59 48.17,12.3 52,13.31 55.83,6 59.67,9.48 63.5,21.43 67.33,21.94 71.17,25.85 75,25.4 78.83,27.36 82.67,30.04 86.5,31.49 90.33,30.63 94.17,36.13 98,28.73 101.83,23.21 105.67,32.05 109.5,34.75 113.33,37.18 117.17,36.9 121,38.07 124.83,35.51 128.67,39.53 132.5,42.42 136.33,44 140.17,38.93 144,43.39" style="fill:none;stroke:#1D9EC3;stroke-width:3" />
<circle cx="144" cy="43.39" r="4" fill="white" stroke = "#1D9EC3" stroke-width="3"/>
</svg>
