<svg  height = "50"  width = "150"  version = "1.1"  xmlns = "http://www.w3.org/2000/svg">
<polyline points="6,14.92 9.83,17.14 13.67,15.61 17.5,13.59 21.33,15.34 25.17,16.54 29,16.55 32.83,28.02 36.67,36.15 40.5,27.35 44.33,28.11 48.17,35.22 52,44 55.83,21.03 59.67,15.09 63.5,15.89 67.33,12.44 71.17,14.89 75,11.74 78.83,15.24 82.67,14.67 86.5,14.7 90.33,12.96 94.17,11.6 98,25.5 101.83,29.03 105.67,11.1 109.5,6.94 113.33,16.93 117.17,9.17 121,8.82 124.83,6 128.67,10.2 132.5,9.74 136.33,13.48 140.17,13.37 144,13.61" style="fill:none;stroke:#14826D;stroke-width:3" />
<circle cx="144" cy="13.61" r="4" fill="white" stroke = "#14826D" stroke-width="3"/>
</svg>
