<svg  height = "50"  width = "150"  version = "1.1"  xmlns = "http://www.w3.org/2000/svg">
<polyline points="6,15.47 9.83,14.2 13.67,14.11 17.5,13.27 21.33,15.08 25.17,17.53 29,18.32 32.83,32.08 36.67,38.89 40.5,37.48 44.33,35.25 48.17,38.77 52,44 55.83,39.65 59.67,28.59 63.5,24.88 67.33,21.33 71.17,18.57 75,16.83 78.83,17.16 82.67,15.01 86.5,18.37 90.33,14.76 94.17,9.57 98,25.32 101.83,29.99 105.67,11.98 109.5,10.94 113.33,7.79 117.17,9.13 121,9.23 124.83,8.63 128.67,9.4 132.5,6.94 136.33,7.65 140.17,6 144,7.73" style="fill:none;stroke:#1D9EC3;stroke-width:3" />
<circle cx="144" cy="7.73" r="4" fill="white" stroke = "#1D9EC3" stroke-width="3"/>
</svg>
