<svg  height = "50"  width = "150"  version = "1.1"  xmlns = "http://www.w3.org/2000/svg">
<polyline points="6,30.4 9.83,29.88 13.67,31.97 17.5,29.27 21.33,25.02 25.17,25.43 29,26.86 32.83,19.48 36.67,12.37 40.5,6 44.33,11.05 48.17,9.97 52,13.15 55.83,8 59.67,9.57 63.5,15.64 67.33,16.65 71.17,22.09 75,19.34 78.83,24.18 82.67,29.66 86.5,31.65 90.33,31.99 94.17,36.47 98,29.96 101.83,22.7 105.67,30.41 109.5,34.52 113.33,35.84 117.17,35.53 121,36.38 124.83,34.73 128.67,38.99 132.5,43.08 136.33,44 140.17,39.25 144,41.25" style="fill:none;stroke:#1D9EC3;stroke-width:3" />
<circle cx="144" cy="41.25" r="4" fill="white" stroke = "#1D9EC3" stroke-width="3"/>
</svg>
