<svg height = "50"  width = "150"  version = "1.1"  xmlns = "http://www.w3.org/2000/svg">
<polyline points="6,21.89 9.83,20.93 13.67,20.24 17.5,19.22 21.33,18.19 25.17,18.38 29,19.2 32.83,21.2 36.67,25.2 40.5,28.11 44.33,30.61 48.17,33.61 52,38.31 55.83,40.66 59.67,41.53 63.5,43.26 67.33,44 71.17,43.94 75,42.37 78.83,40.48 82.67,36.34 86.5,33.14 90.33,30.41 94.17,26.54 98,24.02 101.83,24.17 105.67,22.86 109.5,19.96 113.33,19.12 117.17,18.14 121,18.36 124.83,16.2 128.67,14.31 132.5,13.13 136.33,11.76 140.17,10.55 144,6" style="fill:none;stroke:#004676;stroke-width:3" />
<circle cx="144" cy="6" r="4" fill="white" stroke = "#004676" stroke-width="3"/>
</svg>
