<svg  height = "50"  width = "150"  version = "1.1"  xmlns = "http://www.w3.org/2000/svg">
<polyline points="6,30.18 9.83,29.56 13.67,31.7 17.5,28.63 21.33,24.07 25.17,24.76 29,26.18 32.83,19.96 36.67,13.47 40.5,6 44.33,11.22 48.17,10.78 52,15 55.83,7.92 59.67,8.36 63.5,14.94 67.33,15.57 71.17,21.31 75,18.16 78.83,23.47 82.67,29.12 86.5,31.45 90.33,31.51 94.17,36.04 98,30.42 101.83,23.25 105.67,29.58 109.5,33.77 113.33,35.29 117.17,34.71 121,35.56 124.83,33.68 128.67,38.56 132.5,42.89 136.33,44 140.17,38.79 144,41.08" style="fill:none;stroke:#1D9EC3;stroke-width:3" />
<circle cx="144" cy="41.08" r="4" fill="white" stroke = "#1D9EC3" stroke-width="3"/>
</svg>
