<svg  height = "50"  width = "150"  version = "1.1"  xmlns = "http://www.w3.org/2000/svg">
<polyline points="6,18.05 9.83,16.29 13.67,15.72 17.5,14.39 21.33,15.59 25.17,17.46 29,17.65 32.83,31.38 36.67,38.15 40.5,36.67 44.33,34.71 48.17,38.5 52,44 55.83,39.89 59.67,29.07 63.5,25.62 67.33,22.18 71.17,19.52 75,17.88 78.83,18.2 82.67,16.04 86.5,19.37 90.33,15.79 94.17,10.63 98,26.35 101.83,30.77 105.67,12.54 109.5,11.25 113.33,7.38 117.17,7.99 121,7.37 124.83,7.43 128.67,8.86 132.5,7.06 136.33,7.71 140.17,6 144,7.67" style="fill:none;stroke:#62BB46;stroke-width:3" />
<circle cx="144" cy="7.67" r="4" fill="white" stroke = "#62BB46" stroke-width="3"/>
</svg>
