<svg height = "50"  width = "150"  version = "1.1"  xmlns = "http://www.w3.org/2000/svg">
<polyline points="6,20.07 9.83,21.12 13.67,18.99 17.5,18.38 21.33,19.52 25.17,21.25 29,18.26 32.83,32.74 36.67,41.67 40.5,36.92 44.33,34.93 48.17,40.06 52,44 55.83,29.51 59.67,26.02 63.5,27.57 67.33,24.57 71.17,23.06 75,23.57 78.83,22.14 82.67,17.64 86.5,16.46 90.33,14.31 94.17,11.84 98,24.08 101.83,30.38 105.67,14.57 109.5,8.57 113.33,14.77 117.17,8.46 121,7.08 124.83,6.17 128.67,7.99 132.5,6 136.33,8.55 140.17,10.31 144,10.92" style="fill:none;stroke:#1F1547;stroke-width:3" />
<circle cx="144" cy="10.92" r="4" fill="white" stroke = "#1F1547" stroke-width="3"/>
</svg>
