<svg  height = "50"  width = "150"  version = "1.1"  xmlns = "http://www.w3.org/2000/svg">
<polyline points="6,39.47 9.83,39.76 13.67,40.28 17.5,39.78 21.33,39.11 25.17,37.78 29,37.3 32.83,35.8 36.67,33.29 40.5,29.72 44.33,26.15 48.17,22.16 52,19.25 55.83,14.47 59.67,10 63.5,7.83 67.33,6.54 71.17,6.84 75,6 78.83,7.42 82.67,10.44 86.5,14.86 90.33,17.74 94.17,21.24 98,22.77 101.83,24.32 105.67,27.54 109.5,30.43 113.33,33.63 117.17,35.5 121,37.87 124.83,38.58 128.67,38.1 132.5,39.17 136.33,41.45 140.17,41.74 144,44" style="fill:none;stroke:#1D9EC3;stroke-width:3" />
<circle cx="144" cy="44" r="4" fill="white" stroke = "#1D9EC3" stroke-width="3"/>
</svg>
