<svg  height = "50"  width = "150"  version = "1.1"  xmlns = "http://www.w3.org/2000/svg">
<polyline points="6,16.89 9.83,18.61 13.67,17.13 17.5,17.19 21.33,19.06 25.17,21.51 29,19.23 32.83,33.78 36.67,42.78 40.5,38.12 44.33,35.73 48.17,40.46 52,44 55.83,29.15 59.67,25.29 63.5,26.49 67.33,23.35 71.17,21.71 75,22.09 78.83,20.68 82.67,16.18 86.5,15.02 90.33,12.92 94.17,10.5 98,22.85 101.83,29.53 105.67,14.06 109.5,8.42 113.33,15.56 117.17,10.2 121,9.76 124.83,7.97 128.67,8.88 132.5,6 136.33,8.65 140.17,10.52 144,11.23" style="fill:none;stroke:#1D9EC3;stroke-width:3" />
<circle cx="144" cy="11.23" r="4" fill="white" stroke = "#1D9EC3" stroke-width="3"/>
</svg>
