<svg  height = "50"  width = "150"  version = "1.1"  xmlns = "http://www.w3.org/2000/svg">
<polyline points="6,7.96 9.83,7.17 13.67,6.52 17.5,6.18 21.33,6 25.17,6.95 29,7.99 32.83,10.2 36.67,14.11 40.5,17.75 44.33,21.3 48.17,25.37 52,30.15 55.83,34.25 59.67,37.49 63.5,40.44 67.33,42.47 71.17,43.42 75,44 78.83,43.39 82.67,40.75 86.5,38.15 90.33,36.36 94.17,33.61 98,32.32 101.83,32.46 105.67,31.01 109.5,28.6 113.33,27.09 117.17,25.84 121,24.92 124.83,23.43 128.67,22.71 132.5,21.94 136.33,20.55 140.17,20.05 144,16.79" style="fill:none;stroke:#62BB46;stroke-width:3" />
<circle cx="144" cy="16.79" r="4" fill="white" stroke = "#62BB46" stroke-width="3"/>
</svg>
