<svg height = "50"  width = "150"  version = "1.1"  xmlns = "http://www.w3.org/2000/svg">
<polyline points="6,15.01 9.83,12.72 13.67,14.67 17.5,11.93 21.33,10.07 25.17,16.06 29,16.22 32.83,35.1 36.67,40.66 40.5,32.55 44.33,31.87 48.17,35.54 52,44 55.83,32.56 59.67,18.39 63.5,21.25 67.33,16.4 71.17,15.08 75,12.23 78.83,14.07 82.67,12.81 86.5,18.67 90.33,12.86 94.17,9.17 98,26.88 101.83,29.97 105.67,9.81 109.5,10.2 113.33,7.35 117.17,9.08 121,10.04 124.83,7.4 128.67,11.28 132.5,9.75 136.33,11.84 140.17,6 144,11.55" style="fill:none;stroke:#2A6FA2;stroke-width:3" />
<circle cx="144" cy="11.55" r="4" fill="white" stroke = "#2A6FA2" stroke-width="3"/>
</svg>
