<svg  height = "50"  width = "150"  version = "1.1"  xmlns = "http://www.w3.org/2000/svg">
<polyline points="6,30.63 9.83,28.19 13.67,30.46 17.5,29.77 21.33,24.69 25.17,21.36 29,16.63 32.83,23.13 36.67,20.06 40.5,19.03 44.33,12.16 48.17,7.07 52,6 55.83,7.87 59.67,13.1 63.5,15.7 67.33,14.78 71.17,13.91 75,14.01 78.83,16.75 82.67,20.86 86.5,28.72 90.33,31.6 94.17,38.22 98,38.44 101.83,36.73 105.67,34.93 109.5,35.73 113.33,39.28 117.17,40.4 121,36.65 124.83,34.05 128.67,33.1 132.5,37.65 136.33,42.76 140.17,44 144,42.51" style="fill:none;stroke:#1D9EC3;stroke-width:3" />
<circle cx="144" cy="42.51" r="4" fill="white" stroke = "#1D9EC3" stroke-width="3"/>
</svg>
