<svg height = "50"  width = "150"  version = "1.1"  xmlns = "http://www.w3.org/2000/svg">
<polyline points="6,34.41 9.83,33.71 13.67,33.05 17.5,34.19 21.33,32.95 25.17,33.37 29,32.13 32.83,8.36 36.67,6.44 40.5,13.47 44.33,13.27 48.17,7.63 52,6 55.83,14.33 59.67,25.23 63.5,30.2 67.33,32.32 71.17,29.87 75,34.6 78.83,36.08 82.67,35.13 86.5,26.47 90.33,33.71 94.17,28.29 98,26.34 101.83,21.06 105.67,37.54 109.5,41 113.33,42.15 117.17,42.1 121,43.34 124.83,42.56 128.67,43.42 132.5,42.32 136.33,43.53 140.17,43.8 144,44" style="fill:none;stroke:#C0E4B5;stroke-width:3" />
<circle cx="144" cy="44" r="4" fill="white" stroke = "#C0E4B5" stroke-width="3"/>
</svg>
