<svg height = "50"  width = "150"  version = "1.1"  xmlns = "http://www.w3.org/2000/svg">
<polyline points="6,32.64 9.83,31.95 13.67,32.2 17.5,32.1 21.33,29.71 25.17,30.16 29,29.76 32.83,9.91 36.67,6.05 40.5,8.95 44.33,10.56 48.17,6.08 52,6 55.83,10.26 59.67,18.73 63.5,24.46 67.33,26.35 71.17,26.46 75,28.94 78.83,31.7 82.67,32.91 86.5,27.31 90.33,32.69 94.17,30.31 98,26.63 101.83,20.26 105.67,34.92 109.5,38.86 113.33,40.16 117.17,40.02 121,41.21 124.83,40.07 128.67,42.18 132.5,42.8 136.33,44 140.17,42.55 144,43.39" style="fill:none;stroke:#53565A;stroke-width:3" />
<circle cx="144" cy="43.39" r="4" fill="white" stroke = "#53565A" stroke-width="3"/>
</svg>
