<svg height = "50"  width = "150"  version = "1.1"  xmlns = "http://www.w3.org/2000/svg">
<polyline points="6,12.08 9.83,12.69 13.67,7.82 17.5,6 21.33,13.19 25.17,12.88 29,8.42 32.83,32.36 36.67,44 40.5,33.24 44.33,24.47 48.17,31.57 52,39.93 55.83,31.97 59.67,21.84 63.5,17.49 67.33,18.9 71.17,17.44 75,13.82 78.83,14.44 82.67,13.72 86.5,16.82 90.33,13.25 94.17,12.41 98,37.35 101.83,39.29 105.67,12.46 109.5,9.54 113.33,8.17 117.17,13.95 121,10.41 124.83,16.12 128.67,16.34 132.5,20.96 136.33,22.4 140.17,20.41 144,27.64" style="fill:none;stroke:#53565A;stroke-width:3" />
<circle cx="144" cy="27.64" r="4" fill="white" stroke = "#53565A" stroke-width="3"/>
</svg>
